HIERARCHY
ROOT newVegas:Hips
{
	OFFSET 0.000000 96.479958 0.000000
	CHANNELS 6 Xposition Yposition Zposition Xrotation Yrotation Zrotation
	JOINT newVegas:Pelvis
	{
		OFFSET 0.000000 0.000000 0.000000
		CHANNELS 3 Xrotation Yrotation Zrotation
		JOINT newVegas:LeftUpLeg
		{
			OFFSET 18.735201 -5.666702 -4.541200
			CHANNELS 3 Xrotation Yrotation Zrotation
			JOINT newVegas:LeftLeg
			{
				OFFSET -0.021200 -31.938179 0.493100
				CHANNELS 3 Xrotation Yrotation Zrotation
				JOINT newVegas:LeftFoot
				{
					OFFSET 0.021200 -31.938179 -4.336299
					CHANNELS 3 Xrotation Yrotation Zrotation
					JOINT newVegas:LeftToeBase
					{
						OFFSET 0.943001 -26.722000 15.023500
						CHANNELS 3 Xrotation Yrotation Zrotation
						End Site
						{
							OFFSET 0.000000 30.670183 0.000000
						}
					}
				}
				JOINT newVegas:Left_PantLeg
				{
					OFFSET 0.663870 -9.044666 -1.108900
					CHANNELS 3 Xrotation Yrotation Zrotation
					End Site
					{
						OFFSET 1.415995 20.635357 0.000000
					}
				}
			}
		}
		JOINT newVegas:RightUpLeg
		{
			OFFSET -18.735201 -5.666702 -4.541200
			CHANNELS 3 Xrotation Yrotation Zrotation
			JOINT newVegas:RightLeg
			{
				OFFSET 0.018946 -31.938133 0.493100
				CHANNELS 3 Xrotation Yrotation Zrotation
				JOINT newVegas:RightFoot
				{
					OFFSET -0.018946 -31.938126 -4.336299
					CHANNELS 3 Xrotation Yrotation Zrotation
					JOINT newVegas:RightToeBase
					{
						OFFSET -0.943001 -26.722004 15.023500
						CHANNELS 3 Xrotation Yrotation Zrotation
						End Site
						{
							OFFSET 0.000000 30.670187 0.000000
						}
					}
				}
				JOINT newVegas:Right_PantLeg
				{
					OFFSET -0.661674 -9.044716 -1.108900
					CHANNELS 3 Xrotation Yrotation Zrotation
					End Site
					{
						OFFSET -1.415958 20.635269 0.000000
					}
				}
			}
		}
	}
	JOINT newVegas:Spine
	{
		OFFSET 0.000000 10.199997 -0.299500
		CHANNELS 3 Xrotation Yrotation Zrotation
		JOINT newVegas:Spine1
		{
			OFFSET 0.000000 11.900002 -1.516600
			CHANNELS 3 Xrotation Yrotation Zrotation
			JOINT newVegas:Spine2
			{
				OFFSET 0.000000 13.600006 -2.842500
				CHANNELS 3 Xrotation Yrotation Zrotation
				JOINT newVegas:Neck
				{
					OFFSET 0.000000 9.624100 -2.890100
					CHANNELS 3 Xrotation Yrotation Zrotation
					JOINT newVegas:Head
					{
						OFFSET 0.000000 14.068802 -1.351900
						CHANNELS 3 Xrotation Yrotation Zrotation
						JOINT newVegas:Hair_Back
						{
							OFFSET 0.000000 3.231903 -17.524799
							CHANNELS 3 Xrotation Yrotation Zrotation
							End Site
							{
								OFFSET 0.000000 19.849884 0.000000
							}
						}
						JOINT newVegas:Hair_Front
						{
							OFFSET 0.000000 31.260406 4.573800
							CHANNELS 3 Xrotation Yrotation Zrotation
							JOINT newVegas:Hair_Front1
							{
								OFFSET 0.000000 2.284103 11.993300
								CHANNELS 3 Xrotation Yrotation Zrotation
								JOINT newVegas:Hair_Front2
								{
									OFFSET 0.000000 2.284103 11.993300
									CHANNELS 3 Xrotation Yrotation Zrotation
									End Site
									{
										OFFSET 0.000000 12.208862 0.000000
									}
								}
							}
						}
						JOINT newVegas:Jowel
						{
							OFFSET 0.000000 -7.458206 6.864100
							CHANNELS 3 Xrotation Yrotation Zrotation
							End Site
							{
								OFFSET 0.000000 19.849884 0.000000
							}
						}
					}
				}
				JOINT newVegas:LeftShoulder
				{
					OFFSET 15.263000 10.923401 -0.547700
					CHANNELS 3 Xrotation Yrotation Zrotation
					JOINT newVegas:LeftArm
					{
						OFFSET 25.438599 -2.830597 -13.032500
						CHANNELS 3 Xrotation Yrotation Zrotation
						JOINT newVegas:LeftForeArm
						{
							OFFSET 29.960503 0.000000 0.000000
							CHANNELS 3 Xrotation Yrotation Zrotation
							JOINT newVegas:LeftHand
							{
								OFFSET 27.849251 0.000000 0.000000
								CHANNELS 3 Xrotation Yrotation Zrotation
								JOINT newVegas:LeftHandThumb1
								{
									OFFSET 4.487587 -3.305161 6.305391
									CHANNELS 3 Xrotation Yrotation Zrotation
									JOINT newVegas:LeftHandThumb2
									{
										OFFSET 5.480453 -3.164139 3.164143
										CHANNELS 3 Xrotation Yrotation Zrotation
										JOINT newVegas:LeftHandThumb3
										{
											OFFSET 5.159721 -2.978973 2.978967
											CHANNELS 3 Xrotation Yrotation Zrotation
											End Site
											{
												OFFSET 2.494507 5.926697 1.738678
											}
										}
									}
								}
								JOINT newVegas:LeftHandIndex1
								{
									OFFSET 18.578728 -0.527832 5.208049
									CHANNELS 3 Xrotation Yrotation Zrotation
									JOINT newVegas:LeftHandIndex2
									{
										OFFSET 3.192009 0.000000 0.000000
										CHANNELS 3 Xrotation Yrotation Zrotation
										JOINT newVegas:LeftHandIndex3
										{
											OFFSET 3.835129 0.000000 0.000000
											CHANNELS 3 Xrotation Yrotation Zrotation
											End Site
											{
												OFFSET -0.034599 3.816971 0.371180
											}
										}
									}
								}
								JOINT newVegas:LeftHandMiddle1
								{
									OFFSET 18.476105 0.000000 0.000000
									CHANNELS 3 Xrotation Yrotation Zrotation
									JOINT newVegas:LeftHandMiddle2
									{
										OFFSET 3.324875 0.000000 0.000000
										CHANNELS 3 Xrotation Yrotation Zrotation
										JOINT newVegas:LeftHandMiddle3
										{
											OFFSET 4.596550 0.000000 0.000000
											CHANNELS 3 Xrotation Yrotation Zrotation
											End Site
											{
												OFFSET 0.057701 4.578827 0.399218
											}
										}
									}
								}
								JOINT newVegas:LeftHandRing1
								{
									OFFSET 17.732719 0.121887 -4.201567
									CHANNELS 3 Xrotation Yrotation Zrotation
									JOINT newVegas:LeftHandRing2
									{
										OFFSET 2.733170 0.000000 0.000000
										CHANNELS 3 Xrotation Yrotation Zrotation
										JOINT newVegas:LeftHandRing3
										{
											OFFSET 3.178268 0.000000 0.000000
											CHANNELS 3 Xrotation Yrotation Zrotation
											End Site
											{
												OFFSET 0.119102 3.170624 0.185394
											}
										}
									}
								}
								JOINT newVegas:LeftHandPinky1
								{
									OFFSET 15.989624 -0.606689 -7.535461
									CHANNELS 3 Xrotation Yrotation Zrotation
									JOINT newVegas:LeftHandPinky2
									{
										OFFSET 2.538986 0.000000 0.000000
										CHANNELS 3 Xrotation Yrotation Zrotation
										JOINT newVegas:LeftHandPinky3
										{
											OFFSET 2.593102 0.000000 0.000000
											CHANNELS 3 Xrotation Yrotation Zrotation
											End Site
											{
												OFFSET -0.150902 2.584198 0.152708
											}
										}
									}
								}
							}
							JOINT newVegas:Left_Sleeve
							{
								OFFSET 0.267448 -0.649796 0.577675
								CHANNELS 3 Xrotation Yrotation Zrotation
								End Site
								{
									OFFSET 0.000000 15.991241 0.000000
								}
							}
							JOINT newVegas:Left_CapeC
							{
								OFFSET 15.715958 -8.608795 -6.935905
								CHANNELS 3 Xrotation Yrotation Zrotation
								JOINT newVegas:Left_CapeC1
								{
									OFFSET 0.000000 -8.688499 0.000000
									CHANNELS 3 Xrotation Yrotation Zrotation
									End Site
									{
										OFFSET 0.000000 8.688499 0.000000
									}
								}
							}
						}
						JOINT newVegas:Left_CapeB
						{
							OFFSET 26.118385 -8.608795 -7.079235
							CHANNELS 3 Xrotation Yrotation Zrotation
							JOINT newVegas:Left_CapeB1
							{
								OFFSET 0.000000 -8.688499 0.000000
								CHANNELS 3 Xrotation Yrotation Zrotation
								End Site
								{
									OFFSET 0.000000 8.688499 0.000000
								}
							}
						}
						JOINT newVegas:Left_CapeA
						{
							OFFSET 5.115639 -8.608795 -10.395809
							CHANNELS 3 Xrotation Yrotation Zrotation
							JOINT newVegas:Left_CapeA1
							{
								OFFSET 0.000000 -8.688499 0.000000
								CHANNELS 3 Xrotation Yrotation Zrotation
								End Site
								{
									OFFSET 0.000000 8.688499 0.000000
								}
							}
						}
					}
				}
				JOINT newVegas:RightShoulder
				{
					OFFSET -15.263000 10.923401 -0.547700
					CHANNELS 3 Xrotation Yrotation Zrotation
					JOINT newVegas:RightArm
					{
						OFFSET -25.438599 -2.830597 -13.032500
						CHANNELS 3 Xrotation Yrotation Zrotation
						JOINT newVegas:RightForeArm
						{
							OFFSET -29.960503 0.000000 0.000000
							CHANNELS 3 Xrotation Yrotation Zrotation
							JOINT newVegas:RightHand
							{
								OFFSET -27.849251 0.000000 0.000000
								CHANNELS 3 Xrotation Yrotation Zrotation
								JOINT newVegas:RightHandThumb1
								{
									OFFSET -4.487587 -3.305161 6.305391
									CHANNELS 3 Xrotation Yrotation Zrotation
									JOINT newVegas:RightHandThumb2
									{
										OFFSET -5.480453 -3.164139 3.164143
										CHANNELS 3 Xrotation Yrotation Zrotation
										JOINT newVegas:RightHandThumb3
										{
											OFFSET -5.159721 -2.978973 2.978967
											CHANNELS 3 Xrotation Yrotation Zrotation
											End Site
											{
												OFFSET -2.494507 5.926697 1.738678
											}
										}
									}
								}
								JOINT newVegas:RightHandIndex1
								{
									OFFSET -18.578728 -0.527832 5.208049
									CHANNELS 3 Xrotation Yrotation Zrotation
									JOINT newVegas:RightHandIndex2
									{
										OFFSET -3.192009 0.000000 0.000000
										CHANNELS 3 Xrotation Yrotation Zrotation
										JOINT newVegas:RightHandIndex3
										{
											OFFSET -3.835129 0.000000 0.000000
											CHANNELS 3 Xrotation Yrotation Zrotation
											End Site
											{
												OFFSET 0.034599 3.816971 0.371180
											}
										}
									}
								}
								JOINT newVegas:RightHandMiddle1
								{
									OFFSET -18.476105 0.000000 0.000000
									CHANNELS 3 Xrotation Yrotation Zrotation
									JOINT newVegas:RightHandMiddle2
									{
										OFFSET -3.324875 0.000000 0.000000
										CHANNELS 3 Xrotation Yrotation Zrotation
										JOINT newVegas:RightHandMiddle3
										{
											OFFSET -4.596550 0.000000 0.000000
											CHANNELS 3 Xrotation Yrotation Zrotation
											End Site
											{
												OFFSET -0.057701 4.578827 0.399218
											}
										}
									}
								}
								JOINT newVegas:RightHandRing1
								{
									OFFSET -17.732719 0.121887 -4.201567
									CHANNELS 3 Xrotation Yrotation Zrotation
									JOINT newVegas:RightHandRing2
									{
										OFFSET -2.733170 0.000000 0.000000
										CHANNELS 3 Xrotation Yrotation Zrotation
										JOINT newVegas:RightHandRing3
										{
											OFFSET -3.178268 0.000000 0.000000
											CHANNELS 3 Xrotation Yrotation Zrotation
											End Site
											{
												OFFSET -0.119102 3.170624 0.185394
											}
										}
									}
								}
								JOINT newVegas:RightHandPinky1
								{
									OFFSET -15.989624 -0.606689 -7.535461
									CHANNELS 3 Xrotation Yrotation Zrotation
									JOINT newVegas:RightHandPinky2
									{
										OFFSET -2.538986 0.000000 0.000000
										CHANNELS 3 Xrotation Yrotation Zrotation
										JOINT newVegas:RightHandPinky3
										{
											OFFSET -2.593102 0.000000 0.000000
											CHANNELS 3 Xrotation Yrotation Zrotation
											End Site
											{
												OFFSET 0.150902 2.584198 0.152708
											}
										}
									}
								}
							}
							JOINT newVegas:Right_CapeC
							{
								OFFSET -15.715958 -8.608795 -6.935905
								CHANNELS 3 Xrotation Yrotation Zrotation
								JOINT newVegas:Right_CapeC1
								{
									OFFSET 0.000000 -8.688499 0.000000
									CHANNELS 3 Xrotation Yrotation Zrotation
									End Site
									{
										OFFSET 0.000000 8.688499 0.000000
									}
								}
							}
							JOINT newVegas:Right_Sleeve
							{
								OFFSET -0.267448 -0.649994 0.577675
								CHANNELS 3 Xrotation Yrotation Zrotation
								End Site
								{
									OFFSET 0.000000 15.991302 0.000000
								}
							}
						}
						JOINT newVegas:Right_CapeA
						{
							OFFSET -5.115540 -8.608795 -10.395824
							CHANNELS 3 Xrotation Yrotation Zrotation
							JOINT newVegas:Right_CapeA1
							{
								OFFSET 0.000000 -8.688499 0.000000
								CHANNELS 3 Xrotation Yrotation Zrotation
								End Site
								{
									OFFSET 0.000000 8.688499 0.000000
								}
							}
						}
						JOINT newVegas:Right_CapeB
						{
							OFFSET -26.118187 -8.608795 -7.079266
							CHANNELS 3 Xrotation Yrotation Zrotation
							JOINT newVegas:Right_CapeB1
							{
								OFFSET 0.000000 -8.688499 0.000000
								CHANNELS 3 Xrotation Yrotation Zrotation
								End Site
								{
									OFFSET 0.000000 8.688499 0.000000
								}
							}
						}
					}
				}
				JOINT newVegas:Left_Collar
				{
					OFFSET 18.625099 8.655502 8.828100
					CHANNELS 3 Xrotation Yrotation Zrotation
					JOINT newVegas:Left_Collar1
					{
						OFFSET 14.783401 10.540405 -1.259500
						CHANNELS 3 Xrotation Yrotation Zrotation
						End Site
						{
							OFFSET 0.000000 18.199875 0.000000
						}
					}
				}
				JOINT newVegas:Collar_Back
				{
					OFFSET 0.000000 15.630707 -20.132601
					CHANNELS 3 Xrotation Yrotation Zrotation
					End Site
					{
						OFFSET 0.000000 22.523010 0.000000
					}
				}
				JOINT newVegas:Left_Peck
				{
					OFFSET 17.239599 -5.132599 25.482599
					CHANNELS 3 Xrotation Yrotation Zrotation
					End Site
					{
						OFFSET 0.000000 22.523010 0.000000
					}
				}
				JOINT newVegas:Right_Peck
				{
					OFFSET -17.239599 -5.132202 25.482599
					CHANNELS 3 Xrotation Yrotation Zrotation
					End Site
					{
						OFFSET 0.000000 22.523010 0.000000
					}
				}
				JOINT newVegas:Right_Collar
				{
					OFFSET -18.625099 8.655792 8.828100
					CHANNELS 3 Xrotation Yrotation Zrotation
					JOINT newVegas:Right_Collar1
					{
						OFFSET -14.783401 10.539993 -1.259500
						CHANNELS 3 Xrotation Yrotation Zrotation
						End Site
						{
							OFFSET 0.000000 18.199631 0.000000
						}
					}
				}
			}
		}
		JOINT newVegas:Belly
		{
			OFFSET 0.000000 -6.540398 9.014299
			CHANNELS 3 Xrotation Yrotation Zrotation
			End Site
			{
				OFFSET 0.000000 11.566666 0.000000
			}
		}
	}
	JOINT newVegas:ElvisFacialAnim_Joint
	{
		OFFSET 1.000000 -95.330101 -8.825800
		CHANNELS 3 Xrotation Yrotation Zrotation
		End Site
		{
			OFFSET 0.000000 35.315800 0.000000
		}
	}
}
MOTION
Frames: 4
Frame Time: 0.033333
-70.016243 16.854111 -0.896004 -80.417124 -20.107582 188.905342 -0.000000 0.000002 0.000000 -10.933046 13.294585 6.775293 12.191582 10.632115 10.287157 18.968110 30.371741 -21.918427 -0.000000 0.000000 0.000000 0.000000 0.000000 -0.000000 -42.847184 -0.688898 -31.163489 76.358503 -8.926805 -5.174805 28.615605 -24.354091 2.646145 -0.000001 0.000002 -0.000001 -0.000001 -0.000000 0.000001 15.042360 -8.783703 -9.837469 1.814608 -1.239513 3.726122 1.889539 -1.133243 3.727814 -9.099145 -0.233818 2.796171 -9.099144 -0.233820 2.796165 -0.000001 -0.000001 -0.000001 -9.099154 -0.233813 2.796167 -9.099171 -0.233805 2.796174 0.000002 0.000000 -0.000000 -0.000001 -0.000001 -0.000001 0.523973 -2.989816 5.842120 -120.453801 -54.241514 -52.018734 -0.000021 -70.571768 -0.000010 -121.915694 -11.418041 27.078063 -0.935035 -6.688644 3.357179 22.295097 -2.170094 9.820247 0.000003 -0.000002 -0.000003 -0.888925 2.496388 -31.919233 2.707706 4.937482 -57.459629 -0.000004 -0.000004 -0.000002 -0.327279 4.560305 -47.261183 3.467009 5.344878 -65.917807 0.000001 0.000000 -0.000001 -1.012430 5.157073 -60.400606 3.932352 5.528527 -70.825981 -0.000003 0.000001 0.000001 1.353965 6.575017 -62.359491 4.435023 5.677663 -75.971115 -0.000002 -0.000005 0.000001 -0.000002 -0.000001 -0.000001 -0.000002 -0.000001 -0.000001 -0.000003 -0.000001 -0.000001 -0.000001 -0.000001 0.000001 -0.000000 -0.000001 0.000001 -0.000001 -0.000001 0.000001 -0.000002 -0.000000 0.000001 0.416386 0.855648 2.123187 -67.466006 33.940368 76.500434 0.000027 119.072955 -0.000040 -20.648519 13.286637 -18.964736 -3.418348 -19.041224 35.185156 -30.863473 -5.895558 -26.354763 0.000000 -0.000003 -0.000003 -2.267926 5.135142 16.410262 4.531045 -4.655473 88.446333 0.000001 0.000000 -0.000001 -6.730990 -6.991470 90.068072 6.249739 -4.376956 110.016712 0.000001 -0.000001 0.000002 0.179433 -7.282725 94.194203 4.766056 -4.655886 91.341083 -0.000004 0.000001 -0.000000 -2.618961 -8.528312 101.433575 2.741556 -4.245731 65.688299 0.000003 0.000001 0.000002 0.000003 0.000000 -0.000003 0.000001 0.000000 0.000001 0.000001 0.000001 -0.000004 0.000001 0.000000 0.000000 0.000001 0.000000 0.000000 0.000001 0.000000 0.000000 0.000001 0.000001 0.000000 0.000001 -0.000000 0.000000 0.000001 -0.000000 0.000000 0.000001 -0.000000 0.000000 0.000001 -0.000000 0.000000 0.000001 -0.000000 0.000000 0.000001 -0.000000 0.000000 0.000001 -0.000000 0.000000 0.000000 -0.000001 -0.000000 -0.000000 0.000002 0.000000 
-72.041809 17.101387 -1.463623 -79.808855 -27.087273 190.227735 -0.000000 0.000001 -0.000000 -11.471518 12.743974 5.317073 10.173662 10.520494 9.162604 20.640736 30.256181 -23.820635 -0.000000 -0.000001 -0.000001 0.000001 0.000001 -0.000001 -37.649673 -2.307040 -27.944662 74.679540 -8.447971 -4.823688 25.683946 -18.513784 2.192767 -0.000001 -0.000000 0.000001 0.000001 0.000001 -0.000001 14.832941 -9.462514 -9.432803 1.586336 -1.333704 4.042727 1.673601 -1.228447 4.047486 -9.174089 -0.347348 2.674384 -9.174082 -0.347344 2.674381 0.000000 0.000000 0.000000 -9.174068 -0.347335 2.674388 -9.174120 -0.347336 2.674380 -0.000000 -0.000002 -0.000001 0.000000 0.000000 0.000001 0.656923 -3.940880 6.784834 -119.018341 -55.333941 -49.928792 -0.000043 -69.901857 -0.000050 -121.774855 -10.896218 28.094159 -0.648709 -6.496997 2.838474 22.348688 -2.107118 9.834798 0.000001 -0.000003 -0.000001 -1.000215 2.223327 -31.174616 2.597846 4.865898 -56.173986 -0.000001 0.000001 0.000000 -0.317974 4.514823 -46.522044 3.511530 5.364457 -66.394787 0.000000 -0.000002 -0.000002 -1.012620 5.172997 -60.572365 3.947803 5.533854 -70.986470 -0.000001 -0.000001 0.000002 1.489987 6.657176 -62.658571 4.470271 5.686344 -76.327391 -0.000001 -0.000003 -0.000000 -0.000002 0.000001 -0.000002 -0.000002 0.000001 -0.000002 -0.000003 0.000001 -0.000003 -0.000001 -0.000003 0.000001 -0.000001 -0.000003 -0.000000 -0.000001 -0.000003 0.000001 -0.000001 -0.000003 0.000001 0.543826 2.576745 3.093441 -66.667906 33.932742 74.968190 0.000000 119.299294 0.000003 -21.636641 13.325008 -19.490537 -3.320405 -19.066727 35.223183 -30.763534 -5.887532 -26.250488 0.000000 -0.000000 -0.000002 -2.302400 5.048287 16.771384 4.530686 -4.655458 88.442050 0.000000 -0.000001 0.000001 -6.728081 -6.981471 90.018628 6.253160 -4.375709 110.061504 -0.000002 -0.000000 0.000003 -0.008786 -7.281793 94.020457 4.764481 -4.655926 91.321781 -0.000002 0.000002 -0.000000 -2.524288 -8.520864 101.517266 2.756493 -4.252432 65.889742 0.000003 -0.000002 -0.000001 0.000001 0.000001 -0.000001 0.000003 -0.000000 0.000000 0.000001 0.000001 -0.000002 0.000004 0.000001 -0.000000 0.000004 0.000001 -0.000000 0.000004 0.000001 -0.000000 0.000003 0.000001 -0.000000 0.000000 0.000001 0.000000 0.000000 0.000001 0.000000 0.000000 0.000001 0.000000 0.000000 0.000001 0.000000 0.000000 0.000001 0.000000 0.000000 0.000001 0.000000 0.000000 0.000001 0.000000 -0.000000 0.000002 0.000000 -0.000000 0.000001 -0.000000 
-73.994270 17.108513 -1.971954 -78.637710 -33.282392 191.711416 -0.000000 -0.000002 -0.000001 -11.669142 12.095113 3.952232 9.446617 9.997591 6.700244 19.527308 30.142079 -23.200086 -0.000000 -0.000000 -0.000000 0.000000 0.000003 0.000002 -32.722569 -4.463544 -23.896976 72.952035 -8.644561 -4.233648 21.141833 -11.400074 0.583685 0.000000 -0.000001 0.000000 0.000001 0.000001 -0.000000 15.376839 -9.102518 -8.884302 1.436077 -1.300033 4.347901 1.525731 -1.185652 4.355848 -9.564195 -0.355958 2.319684 -9.564198 -0.355963 2.319684 -0.000000 -0.000001 -0.000001 -9.564254 -0.355938 2.319681 -9.564114 -0.355978 2.319691 0.000001 -0.000001 -0.000000 -0.000000 -0.000001 -0.000001 0.806572 -4.849981 7.847957 -118.648049 -55.264532 -48.108967 -0.000012 -70.093484 -0.000004 -120.600800 -10.161292 29.482122 -0.388994 -6.390704 2.366279 22.361293 -2.040334 9.800880 0.000002 -0.000001 -0.000001 -1.140755 1.834712 -30.057665 2.480019 4.785144 -54.773459 -0.000004 -0.000000 0.000000 -0.241694 4.531232 -45.728192 3.556579 5.383827 -66.875803 0.000003 0.000001 -0.000001 -0.963417 5.230574 -60.895194 3.979100 5.544491 -71.310624 -0.000002 0.000001 -0.000000 1.667826 6.761569 -63.035222 4.505539 5.694767 -76.683039 -0.000000 -0.000005 0.000001 -0.000002 -0.000003 -0.000002 -0.000002 -0.000003 -0.000002 -0.000003 -0.000002 -0.000002 -0.000000 -0.000002 -0.000001 0.000000 -0.000003 -0.000001 -0.000000 -0.000002 -0.000001 -0.000000 -0.000002 -0.000001 0.641060 4.448789 3.993384 -67.222858 33.880405 74.048738 -0.000063 119.191186 0.000056 -22.152288 13.520277 -19.192700 -3.094768 -19.011867 35.205800 -30.684912 -5.881043 -26.168748 0.000000 -0.000004 -0.000001 -2.331590 4.997586 17.040285 4.530561 -4.655447 88.440213 -0.000001 0.000001 -0.000001 -6.564164 -6.974221 89.989081 6.255778 -4.374770 110.095696 -0.000001 0.000001 0.000001 -0.040212 -7.259420 93.741648 4.763910 -4.655938 91.314589 -0.000002 -0.000001 -0.000000 -2.299246 -8.476843 101.541308 2.770806 -4.258790 66.082668 -0.000001 -0.000000 -0.000001 -0.000001 0.000001 -0.000000 -0.000000 0.000000 0.000000 -0.000000 0.000001 0.000000 -0.000000 0.000000 0.000001 -0.000001 0.000000 0.000001 -0.000000 0.000000 0.000001 -0.000001 -0.000000 0.000001 0.000000 0.000002 0.000000 0.000000 0.000002 0.000000 0.000000 0.000002 0.000000 0.000000 0.000002 0.000000 0.000000 0.000002 0.000000 0.000000 0.000002 0.000000 0.000000 0.000002 0.000000 0.000000 -0.000001 0.000000 -0.000000 -0.000002 -0.000001 
-75.989212 17.076683 -2.838020 -77.445855 -38.752280 193.236666 -0.000000 -0.000003 -0.000001 -12.009165 11.369728 3.550171 9.882811 9.536122 3.521444 18.514761 29.908452 -24.690818 0.000000 -0.000000 0.000001 -0.000001 -0.000001 -0.000000 -28.668353 -5.972947 -19.839394 71.940955 -8.977148 -4.024963 17.122844 -5.436276 0.255205 -0.000003 -0.000000 -0.000000 0.000000 0.000002 0.000000 15.963501 -7.883735 -8.191246 1.432989 -1.168911 4.605025 1.514887 -1.037894 4.613682 -10.251720 -0.255638 1.660304 -10.251737 -0.255643 1.660298 -0.000001 -0.000000 -0.000001 -10.251741 -0.255618 1.660306 -10.251708 -0.255648 1.660310 0.000003 -0.000002 -0.000001 -0.000001 -0.000000 -0.000000 0.953278 -5.667930 8.872483 -119.405258 -53.968668 -46.887787 0.000018 -71.025505 0.000021 -118.585061 -8.804022 31.299782 -0.164963 -6.340430 1.958066 22.355004 -1.969238 9.741288 0.000000 -0.000002 0.000000 -1.261433 1.464874 -29.012741 2.377105 4.711033 -53.530129 0.000002 0.000000 -0.000000 -0.073485 4.660190 -45.185185 3.601302 5.402627 -67.351566 -0.000002 0.000000 -0.000003 -0.864979 5.333055 -61.424403 4.022718 5.558993 -71.761444 -0.000004 -0.000001 0.000001 1.836714 6.858866 -63.415042 4.539524 5.702659 -77.025245 -0.000000 -0.000005 -0.000001 -0.000002 0.000001 -0.000000 -0.000002 0.000001 -0.000000 -0.000002 0.000002 -0.000001 0.000000 -0.000002 -0.000002 0.000000 -0.000002 -0.000001 0.000000 -0.000002 -0.000002 0.000000 -0.000002 -0.000001 0.698549 5.940743 4.479724 -69.161573 34.214292 74.529966 -0.000064 118.684932 0.000062 -22.000075 13.754191 -18.589004 -2.770863 -18.891477 35.125867 -30.638180 -5.877554 -26.119470 0.000002 -0.000003 -0.000003 -2.299395 4.907573 17.002094 4.529767 -4.655421 88.430630 -0.000000 0.000002 -0.000002 -6.273184 -6.945321 89.850934 6.259997 -4.373216 110.151287 0.000001 0.000001 -0.000003 0.059866 -7.213978 93.294312 4.764401 -4.655933 91.320865 -0.000001 -0.000001 -0.000000 -1.974137 -8.392868 101.430228 2.785315 -4.265186 66.278025 0.000002 0.000002 -0.000001 0.000001 0.000000 -0.000002 0.000001 0.000000 -0.000002 0.000001 0.000000 -0.000001 0.000000 0.000000 -0.000003 -0.000000 0.000000 -0.000003 0.000000 0.000000 -0.000003 -0.000000 -0.000000 -0.000002 0.000002 0.000001 -0.000000 0.000002 0.000001 -0.000000 0.000002 0.000001 -0.000000 0.000002 0.000001 -0.000000 0.000002 0.000001 -0.000000 0.000002 0.000001 -0.000000 0.000002 0.000001 -0.000000 -0.000000 0.000002 0.000000 -0.000000 -0.000003 -0.000001 
